# xmcd
# Track frame offsets:
# 150
# 12246
# 28044
# 41731
# 57921
# 72881
#
# Disc length: 1188 seconds
# Revision: 0
# Processed by: cddbd v1.4PL0 Copyright (c) Steve Scherf et al.
# Submitted via: VisiTrax 2.9.5.180 - For more info visit www.synapsa.com
#
DISCID=4a04a206
DTITLE=Various Artist - New Country vol. 13 March-April 2001
DYEAR=2001
DGENRE=
TTITLE0=Sweetwater/Bobby Jones - Dead end dirt road
TTITLE1=Denise Richards - Double talk
TTITLE2=Eddie Collins - Even when I'm right I'm wrong
TTITLE3=Sammy Sadler - Hard on a heart
TTITLE4=Cliff Beach - Heart on the table
TTITLE5=Garry Johnson - Jennie Rose
EXTD=
EXTT0=
EXTT1=
EXTT2=
EXTT3=
EXTT4=
EXTT5=
PLAYORDER=
